<?xml version="1.0" standalone="no"?><!DOCTYPE svg PUBLIC "-//W3C//DTD SVG 1.1//EN" "http://www.w3.org/Graphics/SVG/1.1/DTD/svg11.dtd"><svg t="1522134535857" class="icon" style="" viewBox="0 0 1024 1024" version="1.1" xmlns="http://www.w3.org/2000/svg" p-id="1930" xmlns:xlink="http://www.w3.org/1999/xlink" width="16" height="16"><defs><style type="text/css"></style></defs><path d="M313.6 665.6c6.4 0 12.8 0 12.8-6.4l524.8 6.4c25.6 0 51.2-19.2 57.6-44.8l108.8-448c6.4-19.2 0-38.4-12.8-51.2-12.8-12.8-32-25.6-51.2-25.6L211.2 96 192 0 44.8 0C25.6 0 12.8 12.8 12.8 32S25.6 64 44.8 64l96 0 128 550.4c-38.4 19.2-64 57.6-64 102.4 0 38.4 25.6 76.8 57.6 96-32 19.2-57.6 57.6-57.6 96 0 64 51.2 115.2 115.2 115.2s115.2-51.2 115.2-115.2c0-25.6-12.8-51.2-25.6-70.4l396.8 0c-12.8 19.2-25.6 44.8-25.6 70.4 0 64 51.2 115.2 115.2 115.2s115.2-51.2 115.2-115.2c0-51.2-38.4-96-83.2-108.8 0-12.8-12.8-25.6-32-25.6L339.2 774.4C332.8 768 326.4 768 313.6 768c-25.6 0-51.2-19.2-51.2-51.2C268.8 691.2 288 665.6 313.6 665.6zM857.6 608 339.2 614.4c0 0-6.4-6.4-6.4-6.4L262.4 320l659.2 0L857.6 608zM960 160 934.4 256 249.6 256 224 160 960 160zM313.6 960c-25.6 0-51.2-19.2-51.2-51.2s19.2-51.2 51.2-51.2 51.2 19.2 51.2 51.2S339.2 960 313.6 960zM934.4 908.8c0 25.6-19.2 51.2-51.2 51.2-25.6 0-51.2-19.2-51.2-51.2s19.2-51.2 51.2-51.2C908.8 864 934.4 883.2 934.4 908.8z" p-id="1931" fill="#d81e06"></path></svg>